<svg width="800" height="800" viewBox="0 0 800 800" fill="none" xmlns="http://www.w3.org/2000/svg">
<path d="M589.732 333.348H433.347V133.332C433.347 115.074 448.424 99.9994 466.68 99.9994C484.938 99.9994 500.013 115.076 500.013 133.332V166.665C500.013 221.741 544.936 266.664 600.012 266.664C655.088 266.664 700.012 221.741 700.012 166.665V33.3326C700.012 14.9234 685.088 0 666.679 0C648.27 0 633.346 14.9234 633.346 33.3326V166.665C633.346 184.922 618.27 199.997 600.014 199.997C581.756 199.997 566.681 184.921 566.681 166.665V133.332C566.681 78.2558 521.758 33.3326 466.682 33.3326C411.605 33.3326 366.682 78.2558 366.682 133.332V333.348H213.103C94.9838 333.348 0.00469971 438.99 0.00469971 566.647C0.00469971 687.962 81.6152 798.458 186.957 799.975C221.217 800.47 270.742 793.589 316.986 779.497C368.832 763.672 434.174 763.655 485.799 779.481C530.211 793.064 585.89 800.511 615.996 799.973C721.068 797.981 799.998 688.452 799.998 566.647C799.998 438.519 707.499 333.348 589.732 333.348ZM614.767 733.319C591.562 733.735 542.861 727.221 505.314 715.738C440.983 696.018 362.06 696.038 297.536 715.733C257.972 727.789 215.328 733.714 187.916 733.318C123.846 732.394 66.6684 654.979 66.6684 566.648C66.6684 474.322 133.474 400.016 213.1 400.016H589.731C668.637 400.016 733.33 473.572 733.33 566.648C733.332 655.743 678.296 732.114 614.767 733.319Z" fill="black"/>
<path d="M566.679 533.33C585.079 533.33 600.012 518.397 600.012 499.997C600.012 481.597 585.079 466.664 566.679 466.664C548.28 466.664 533.347 481.597 533.347 499.997C533.347 518.397 548.28 533.33 566.679 533.33Z" fill="black"/>
<path d="M566.679 599.996C548.28 599.996 533.347 614.929 533.347 633.329C533.347 651.729 548.28 666.662 566.679 666.662C585.079 666.662 600.012 651.729 600.012 633.329C600.012 614.929 585.079 599.996 566.679 599.996Z" fill="black"/>
<path d="M500.013 533.33C481.613 533.33 466.68 548.262 466.68 566.662C466.68 585.062 481.613 599.997 500.013 599.997C518.413 599.997 533.345 585.064 533.345 566.664C533.345 548.264 518.413 533.33 500.013 533.33Z" fill="black"/>
<path d="M633.346 533.33C614.946 533.33 600.014 548.262 600.014 566.662C600.014 585.062 614.946 599.997 633.346 599.997C651.746 599.997 666.679 585.064 666.679 566.664C666.679 548.264 651.746 533.33 633.346 533.33Z" fill="black"/>
<path d="M300.014 533.33H266.681V499.997C266.681 481.588 251.758 466.664 233.349 466.664C214.939 466.664 200.016 481.588 200.016 499.997V533.33H166.683C148.274 533.33 133.351 548.253 133.351 566.662C133.351 585.072 148.273 599.996 166.682 599.996H200.014V633.329C200.014 651.738 214.938 666.662 233.347 666.662C251.756 666.662 266.68 651.738 266.68 633.329V599.996H300.012C318.422 599.996 333.345 585.073 333.345 566.664C333.345 548.255 318.423 533.33 300.014 533.33Z" fill="black"/>
<g style="mix-blend-mode:color-dodge">
<rect x="-166" y="-104" width="1114" height="1059" fill="#F6F6F6"/>
</g>
</svg>
